<svg width="160" height="33" viewBox="0 0 160 33" fill="none" xmlns="http://www.w3.org/2000/svg">
<g clip-path="url(#clip0_48_2)">
<path fill-rule="evenodd" clip-rule="evenodd" d="M14.555 1.54302C13.125 -0.561976 9.98902 -0.502976 8.64002 1.65502L0.531024 14.63C0.177816 15.1948 -0.00638722 15.8488 0.000169114 16.5149C0.00672545 17.181 0.203768 17.8313 0.568024 18.389L9.05502 31.403C10.445 33.533 13.581 33.533 14.97 31.403L23.432 18.428C23.8085 17.8514 24.006 17.1762 23.9996 16.4876C23.9932 15.7989 23.7832 15.1276 23.396 14.558L14.555 1.54302ZM15.523 9.23002C15.218 14.667 10.928 19.046 5.51102 19.524L12.013 29.494L20.475 16.52L15.523 9.23002Z" fill="#0057FF"/>
<path d="M34.7159 24H30.4545L35.2557 9.45455H40.6534L45.4545 24H41.1932L38.0114 13.4602H37.8977L34.7159 24ZM33.9205 18.2614H41.9318V21.2159H33.9205V18.2614ZM46.8555 9.45455H51.7702L55.1509 17.6932H55.3214L58.7021 9.45455H63.6168V24H59.7532V15.5909H59.6396L56.4009 23.8864H54.0714L50.8327 15.5341H50.7191V24H46.8555V9.45455ZM65.4883 24V9.45455H69.4371V20.8182H75.3178V24H65.4883ZM89.9272 14.9091H85.9215C85.8931 14.5777 85.8174 14.277 85.6942 14.0071C85.5759 13.7372 85.4102 13.5052 85.1971 13.3111C84.9888 13.1122 84.7354 12.9607 84.4371 12.8565C84.1388 12.7476 83.8003 12.6932 83.4215 12.6932C82.7586 12.6932 82.1976 12.8542 81.7383 13.1761C81.2837 13.4981 80.9381 13.9598 80.7013 14.5611C80.4693 15.1624 80.3533 15.8845 80.3533 16.7273C80.3533 17.6174 80.4717 18.3632 80.7085 18.9645C80.9499 19.5611 81.2979 20.0109 81.7525 20.3139C82.207 20.6122 82.7539 20.7614 83.3931 20.7614C83.7577 20.7614 84.0844 20.7164 84.3732 20.6264C84.6621 20.5317 84.913 20.3968 85.1261 20.2216C85.3391 20.0464 85.512 19.8357 85.6445 19.5895C85.7818 19.3385 85.8742 19.0568 85.9215 18.7443L89.9272 18.7727C89.8799 19.3883 89.707 20.0156 89.4087 20.6548C89.1104 21.2893 88.6867 21.8764 88.1374 22.4162C87.5929 22.9512 86.9182 23.3821 86.1133 23.7088C85.3084 24.0355 84.3732 24.1989 83.3079 24.1989C81.9727 24.1989 80.7747 23.9124 79.7141 23.3395C78.6583 22.7666 77.8226 21.9238 77.207 20.8111C76.5962 19.6984 76.2908 18.3371 76.2908 16.7273C76.2908 15.108 76.6033 13.7443 77.2283 12.6364C77.8533 11.5237 78.6961 10.6832 79.7567 10.1151C80.8174 9.54214 82.0011 9.25568 83.3079 9.25568C84.2264 9.25568 85.0716 9.38115 85.8434 9.6321C86.6152 9.88305 87.2923 10.25 87.8746 10.733C88.457 11.2112 88.9258 11.8007 89.2809 12.5014C89.636 13.2022 89.8514 14.0047 89.9272 14.9091ZM95.696 17.8636V24H91.7756V9.45455H95.554V15.1648H95.6676C95.9138 14.4687 96.3234 13.9266 96.8963 13.5384C97.4692 13.1454 98.1581 12.9489 98.9631 12.9489C99.7348 12.9489 100.405 13.1241 100.973 13.4744C101.546 13.8248 101.989 14.3078 102.301 14.9233C102.618 15.5388 102.775 16.2443 102.77 17.0398V24H98.8494V17.8636C98.8542 17.3239 98.7192 16.9001 98.4446 16.5923C98.1747 16.2846 97.7888 16.1307 97.2869 16.1307C96.9697 16.1307 96.6903 16.2017 96.4489 16.3438C96.2121 16.4811 96.0275 16.6799 95.8949 16.9403C95.767 17.196 95.7008 17.5038 95.696 17.8636ZM109.933 24.1989C108.768 24.1989 107.764 23.9763 106.921 23.5312C106.083 23.0814 105.437 22.4375 104.982 21.5994C104.532 20.7566 104.308 19.7481 104.308 18.5739C104.308 17.447 104.535 16.4621 104.989 15.6193C105.444 14.7765 106.085 14.1207 106.914 13.652C107.743 13.1832 108.72 12.9489 109.847 12.9489C110.671 12.9489 111.417 13.0767 112.085 13.3324C112.752 13.5881 113.323 13.9598 113.796 14.4474C114.27 14.9304 114.634 15.5175 114.89 16.2088C115.146 16.9001 115.273 17.679 115.273 18.5455V19.4545H105.529V17.2955H111.665C111.661 16.983 111.58 16.7083 111.424 16.4716C111.272 16.2301 111.067 16.0431 110.806 15.9105C110.55 15.7732 110.259 15.7045 109.933 15.7045C109.615 15.7045 109.324 15.7732 109.059 15.9105C108.794 16.0431 108.581 16.2277 108.42 16.4645C108.263 16.7012 108.181 16.9782 108.171 17.2955V19.625C108.171 19.9754 108.245 20.2879 108.391 20.5625C108.538 20.8371 108.749 21.0526 109.023 21.2088C109.298 21.3651 109.629 21.4432 110.018 21.4432C110.288 21.4432 110.534 21.4053 110.756 21.3295C110.984 21.2538 111.178 21.1449 111.339 21.0028C111.5 20.8561 111.618 20.6809 111.694 20.4773H115.273C115.15 21.2348 114.859 21.893 114.4 22.4517C113.941 23.0057 113.332 23.4366 112.575 23.7443C111.822 24.0473 110.941 24.1989 109.933 24.1989ZM122.129 24.1989C120.945 24.1989 119.932 23.9645 119.089 23.4957C118.246 23.0223 117.6 22.3641 117.15 21.5213C116.7 20.6738 116.475 19.6913 116.475 18.5739C116.475 17.4564 116.7 16.4763 117.15 15.6335C117.6 14.786 118.246 14.1278 119.089 13.6591C119.932 13.1856 120.945 12.9489 122.129 12.9489C123.199 12.9489 124.125 13.143 124.906 13.5312C125.692 13.9148 126.3 14.4593 126.731 15.1648C127.162 15.8655 127.38 16.6894 127.385 17.6364H123.748C123.696 17.0634 123.53 16.6278 123.251 16.3295C122.976 16.0265 122.621 15.875 122.186 15.875C121.845 15.875 121.547 15.9744 121.291 16.1733C121.035 16.3674 120.836 16.6634 120.694 17.0611C120.552 17.4541 120.481 17.9489 120.481 18.5455C120.481 19.142 120.552 19.6392 120.694 20.0369C120.836 20.4299 121.035 20.7259 121.291 20.9247C121.547 21.1188 121.845 21.2159 122.186 21.2159C122.475 21.2159 122.73 21.1496 122.953 21.017C123.175 20.8797 123.355 20.6809 123.493 20.4205C123.635 20.1553 123.72 19.8333 123.748 19.4545H127.385C127.37 20.4157 127.15 21.2538 126.724 21.9688C126.298 22.679 125.694 23.2282 124.913 23.6165C124.136 24.0047 123.208 24.1989 122.129 24.1989ZM132.525 21.4148L132.553 16.7557H133.065L135.707 13.0909H140.11L135.678 18.8011H134.57L132.525 21.4148ZM129.002 24V9.45455H132.923V24H129.002ZM135.735 24L133.235 19.6818L135.792 16.8977L140.224 24H135.735ZM151.103 16.642H147.495C147.476 16.4195 147.398 16.2277 147.26 16.0668C147.123 15.9058 146.945 15.7827 146.728 15.6974C146.515 15.6075 146.278 15.5625 146.017 15.5625C145.681 15.5625 145.392 15.6241 145.151 15.7472C144.909 15.8703 144.791 16.0455 144.796 16.2727C144.791 16.4337 144.86 16.5829 145.002 16.7202C145.149 16.8575 145.43 16.964 145.847 17.0398L148.063 17.4375C149.18 17.6411 150.011 17.9844 150.556 18.4673C151.105 18.9455 151.382 19.5871 151.387 20.392C151.382 21.1686 151.15 21.8433 150.691 22.4162C150.236 22.9844 149.614 23.4247 148.823 23.7372C148.037 24.045 147.14 24.1989 146.131 24.1989C144.464 24.1989 143.16 23.858 142.218 23.1761C141.28 22.4943 140.757 21.5947 140.648 20.4773H144.54C144.592 20.8229 144.763 21.0904 145.051 21.2798C145.345 21.4645 145.714 21.5568 146.159 21.5568C146.519 21.5568 146.815 21.4953 147.047 21.3722C147.284 21.2491 147.405 21.0739 147.409 20.8466C147.405 20.6383 147.301 20.4725 147.097 20.3494C146.898 20.2263 146.586 20.1269 146.159 20.0511L144.228 19.7102C143.115 19.5161 142.282 19.1468 141.728 18.6023C141.174 18.0578 140.899 17.357 140.904 16.5C140.899 15.7424 141.098 15.1009 141.5 14.5753C141.908 14.045 142.488 13.6425 143.24 13.3679C143.998 13.0885 144.895 12.9489 145.932 12.9489C147.509 12.9489 148.752 13.2756 149.661 13.929C150.575 14.5824 151.055 15.4867 151.103 16.642Z" fill="black"/>
</g>
<defs>
<clipPath id="clip0_48_2">
<rect width="160" height="33" fill="white"/>
</clipPath>
</defs>
</svg>
